{
.appVersion = "3260";
.formatVersion = 3;
DisplayStrings = (
"Aa Bb Cc Dd Ee Ff Gg Hh Ii Jj Kk Ll Mm Nn Oo Pp Qq Rr Ss Tt Uu Vv Ww Xx Yy Zz

1 2 3 4 5 6 7 8 9 0

. , ; : ' \" ‘ “ ’ ” ! ? - "
);
date = "2022-08-08 01:18:45 +0000";
familyName = Soobi;
fontMaster = (
{
guides = (
{
angle = 40;
locked = 1;
pos = (437,400);
},
{
angle = -40;
locked = 1;
pos = (436,100);
}
);
iconName = Bold_Extended;
id = m01;
metricValues = (
{
over = 16;
pos = 750;
},
{
over = 16;
pos = 700;
},
{
over = 16;
pos = 500;
},
{
over = -16;
},
{
over = -16;
pos = -250;
},
{
}
);
name = Display;
userData = {
GSOffsetHorizontal = 5;
GSOffsetKeepCompatible = 1;
GSOffsetProportional = 1;
GSOffsetVertical = 10;
KernOnIndependentPairs = (
"W A",
"L T",
"A C",
"y quotesingle",
"r m",
"F u",
"y question",
"r question",
"Y v",
"F y",
"T w",
"A A",
"E R"
);
KernOnModels = (
"A T",
"hyphen Y",
"quotedblleft A",
"quotesingle A",
"F o",
"P A",
"F period",
"V period",
"T comma",
"L O",
"T s",
"W s",
"hyphen V",
"r period",
"F r",
"T r",
"Y u",
"f o",
"L U",
"T O",
"F O",
"g o",
"P o",
"L o",
"E v",
"r o",
"t o",
"v period",
"P r",
"hyphen A",
"c o",
"L A",
"k k",
"colon four",
"s s",
"F h",
"W h",
"T h",
"j b",
"o n",
"D o",
"f j",
"n n",
"t h",
"g t",
"p o",
"g y",
"g w",
"y exclam",
"A L",
"f b",
"g quoteright",
"quotedblleft t",
"g j",
"r exclam",
"r colon",
"r hyphen",
"r quoteleft",
"I n",
"hyphen t",
"y colon",
"g comma",
"g colon",
"quotesingle t"
);
};
}
);
glyphs = (
{
glyphname = A;
kernLeft = KO_A;
kernRight = KO_A;
lastChange = "2023-06-20 22:56:05 +0000";
layers = (
{
layerId = m01;
shapes = (
{
closed = 1;
nodes = (
(98,-18,o),
(197,-33,o),
(225,35,cs),
(242,77,o),
(224,130,o),
(245,184,cs),
(255,210,o),
(431,212,o),
(431,184,cs),
(431,127,o),
(435,68,o),
(451,35,cs),
(485,-36,o),
(580,-17,o),
(608,-3,cs),
(628,7,o),
(670,43,o),
(639,130,cs),
(617,192,o),
(570,243,o),
(513,422,cs),
(485,510,o),
(458,594,o),
(424,666,cs),
(401,715,o),
(394,716,o),
(338,716,cs),
(282,716,o),
(275,715,o),
(252,666,cs),
(214,586,o),
(185,489,o),
(163,422,cs),
(99,227,o),
(59,193,o),
(37,130,cs),
(7,45,o),
(46,8,o),
(68,-3,cs)
);
},
{
closed = 1;
nodes = (
(231,319,o),
(286,499,o),
(338,499,cs),
(390,499,o),
(445,319,o),
(428,300,cs),
(414,285,o),
(263,284,o),
(248,300,cs)
);
}
);
width = 676;
}
);
metricLeft = "=H";
metricRight = "=H";
unicode = 65;
userData = {
KernOnName = A;
};
},
{
glyphname = B;
kernLeft = KO_B;
kernRight = KO_B;
lastChange = "2023-06-20 22:11:46 +0000";
layers = (
{
layerId = m01;
shapes = (
{
closed = 1;
nodes = (
(389,-16,ls),
(510,-16,o),
(606,93,o),
(606,201,cs),
(606,301,o),
(534,372,o),
(446,372,c),
(534,372,o),
(573,447,o),
(573,526,cs),
(573,625,o),
(485,716,o),
(355,716,cs),
(134,716,ls),
(101,716,o),
(26,699,o),
(26,626,cs),
(26,553,o),
(76,452,o),
(76,349,cs),
(76,248,o),
(26,146,o),
(26,74,cs),
(26,1,o),
(101,-16,o),
(134,-16,cs)
);
},
{
closed = 1;
nodes = (
(238,33,o),
(212,75,o),
(212,201,cs),
(212,314,o),
(238,352,o),
(315,352,cs),
(392,352,o),
(418,314,o),
(418,201,cs),
(418,75,o),
(392,33,o),
(315,33,cs)
);
},
{
closed = 1;
nodes = (
(235,388,o),
(212,423,o),
(212,526,cs),
(212,632,o),
(235,667,o),
(303,667,cs),
(369,667,o),
(391,632,o),
(391,526,cs),
(391,423,o),
(369,388,o),
(303,388,cs)
);
}
);
width = 626;
}
);
metricLeft = "=H";
metricRight = "=O";
unicode = 66;
},
{
glyphname = C;
kernLeft = KO_O;
kernRight = KO_C;
lastChange = "2023-06-20 22:56:05 +0000";
layers = (
{
layerId = m01;
shapes = (
{
closed = 1;
nodes = (
(502,-26,o),
(652,52,o),
(652,127,cs),
(652,156,o),
(629,181,o),
(588,181,cs),
(498,181,o),
(504,63,o),
(373,63,cs),
(279,63,o),
(255,124,o),
(255,358,cs),
(255,592,o),
(279,646,o),
(366,646,cs),
(508,646,o),
(420,501,o),
(463,433,c),
(536,330,o),
(741,450,o),
(646,596,cs),
(599,669,o),
(489,726,o),
(358,726,cs),
(132,726,o),
(20,555,o),
(20,357,cs),
(20,160,o),
(132,-26,o),
(357,-26,cs)
);
}
);
width = 691;
}
);
metricLeft = "=O";
metricRight = "=O";
unicode = 67;
userData = {
KernOnName = C;
};
},
{
glyphname = D;
kernLeft = KO_D;
kernRight = KO_D;
lastChange = "2023-06-20 22:56:05 +0000";
layers = (
{
layerId = m01;
shapes = (
{
closed = 1;
nodes = (
(550,-16,o),
(692,160,o),
(692,357,cs),
(692,556,o),
(550,716,o),
(346,716,cs),
(-150,716,o),
(78,555,o),
(78,357,cs),
(78,160,o),
(-150,-16,o),
(347,-16,cs)
);
},
{
closed = 1;
nodes = (
(262,63,o),
(233,136,o),
(233,355,cs),
(233,566,o),
(262,636,o),
(347,636,cs),
(430,636,o),
(457,566,o),
(457,355,cs),
(457,136,o),
(430,63,o),
(347,63,cs)
);
}
);
width = 722;
}
);
metricLeft = "=H";
metricRight = "=O+10";
unicode = 68;
userData = {
KernOnName = D;
};
},
{
glyphname = E;
kernLeft = KO_E;
kernRight = KO_E;
lastChange = "2023-06-20 22:56:05 +0000";
layers = (
{
layerId = m01;
shapes = (
{
closed = 1;
nodes = (
(128,-16,o),
(371,-6,o),
(447,-16,cs),
(566,-32,o),
(581,161,o),
(437,161,cs),
(364,161,o),
(315,118,o),
(231,118,cs),
(186,118,o),
(194,240,o),
(186,309,c),
(259,309,o),
(314,292,o),
(369,292,cs),
(493,292,o),
(493,429,o),
(369,429,cs),
(314,429,o),
(258,412,o),
(185,412,c),
(191,482,o),
(176,593,o),
(231,593,cs),
(319,593,o),
(362,549,o),
(437,549,cs),
(573,549,o),
(576,716,o),
(447,716,cs),
(372,716,o),
(342,690,o),
(149,713,c),
(140,715,o),
(132,716,o),
(124,716,cs),
(91,716,o),
(36,699,o),
(36,626,cs),
(36,553,o),
(66,452,o),
(66,349,cs),
(66,248,o),
(26,146,o),
(26,74,cs),
(26,1,o),
(91,-16,o),
(124,-16,cs)
);
}
);
width = 567;
}
);
metricLeft = "=H";
metricRight = "=H";
unicode = 69;
userData = {
KernOnName = E;
};
},
{
glyphname = F;
kernLeft = KO_E;
kernRight = KO_F;
lastChange = "2023-06-20 22:56:05 +0000";
layers = (
{
layerId = m01;
shapes = (
{
closed = 1;
nodes = (
(26,-49,o),
(243,-43,o),
(243,74,cs),
(243,134,o),
(195,215,o),
(186,299,c),
(262,299,o),
(334,282,o),
(389,282,cs),
(452,282,o),
(469,318,o),
(469,351,cs),
(469,384,o),
(452,419,o),
(389,419,cs),
(334,419,o),
(262,402,o),
(185,402,c),
(191,472,o),
(176,593,o),
(231,593,cs),
(319,593,o),
(362,549,o),
(437,549,cs),
(579,549,o),
(569,716,o),
(447,716,cs),
(372,716,o),
(342,690,o),
(149,713,c),
(140,715,o),
(132,716,o),
(124,716,cs),
(91,716,o),
(36,699,o),
(36,626,cs),
(36,553,o),
(66,452,o),
(66,349,cs),
(66,248,o),
(26,146,o),
(26,74,cs)
);
}
);
width = 567;
}
);
metricLeft = "=H";
metricRight = "=H";
unicode = 70;
userData = {
KernOnName = F;
};
},
{
glyphname = G;
kernLeft = KO_O;
kernRight = KO_G;
lastChange = "2023-06-20 22:53:37 +0000";
layers = (
{
layerId = m01;
shapes = (
{
closed = 1;
nodes = (
(564,-26,o),
(703,60,o),
(703,189,cs),
(703,264,o),
(726,316,o),
(656,331,cs),
(610,341,o),
(503,340,o),
(435,331,cs),
(375,323,o),
(367,218,o),
(435,218,cs),
(522,218,o),
(522,218,o),
(523,169,cs),
(523,157,o),
(539,53,o),
(390,53,cs),
(284,53,o),
(255,105,o),
(255,360,cs),
(255,596,o),
(280,646,o),
(364,646,cs),
(507,646,o),
(419,501,o),
(462,433,c),
(535,330,o),
(749,449,o),
(655,596,cs),
(608,670,o),
(498,726,o),
(365,726,cs),
(132,726,o),
(20,554,o),
(20,353,cs),
(20,160,o),
(124,-26,o),
(386,-26,cs)
);
}
);
width = 727;
}
);
metricLeft = "=O";
metricRight = "=O";
unicode = 71;
},
{
glyphname = H;
kernLeft = KO_H;
kernRight = KO_H;
lastChange = "2023-06-20 22:18:12 +0000";
layers = (
{
layerId = m01;
shapes = (
{
closed = 1;
nodes = (
(546,-16,o),
(622,-1,o),
(622,79,cs),
(622,143,o),
(572,247,o),
(572,352,cs),
(572,446,o),
(612,560,o),
(612,622,cs),
(612,701,o),
(546,716,o),
(514,716,cs),
(468,716,o),
(415,686,o),
(415,635,cs),
(415,580,o),
(475,492,o),
(446,461,cs),
(413,426,o),
(234,427,o),
(202,461,cs),
(173,492,o),
(233,580,o),
(233,634,cs),
(233,686,o),
(179,716,o),
(133,716,cs),
(101,716,o),
(36,701,o),
(36,621,cs),
(36,559,o),
(76,446,o),
(76,352,cs),
(76,247,o),
(26,143,o),
(26,78,cs),
(26,-1,o),
(101,-16,o),
(132,-16,cs),
(166,-16,o),
(243,1,o),
(243,73,cs),
(243,130,o),
(195,226,o),
(195,274,cs),
(195,384,o),
(453,384,o),
(453,274,cs),
(453,226,o),
(405,130,o),
(405,73,cs),
(405,1,o),
(481,-16,o),
(515,-16,cs)
);
}
);
width = 648;
}
);
unicode = 72;
},
{
glyphname = I;
kernLeft = KO_H;
kernRight = KO_H;
lastChange = "2023-06-20 22:56:05 +0000";
layers = (
{
layerId = m01;
shapes = (
{
closed = 1;
nodes = (
(167,-16,o),
(243,1,o),
(243,74,cs),
(243,146,o),
(193,248,o),
(193,349,cs),
(193,452,o),
(233,553,o),
(233,626,cs),
(233,699,o),
(167,716,o),
(134,716,cs),
(101,716,o),
(36,699,o),
(36,626,cs),
(36,553,o),
(76,452,o),
(76,349,cs),
(76,248,o),
(26,146,o),
(26,74,cs),
(26,1,o),
(101,-16,o),
(134,-16,cs)
);
}
);
width = 269;
}
);
metricLeft = "=H";
metricRight = "=H";
unicode = 73;
userData = {
KernOnName = I;
};
},
{
glyphname = J;
kernLeft = KO_J;
kernRight = KO_J;
lastChange = "2023-06-20 21:59:06 +0000";
layers = (
{
layerId = m01;
shapes = (
{
closed = 1;
nodes = (
(622,-26,o),
(417,337,o),
(479,585,cs),
(519,745,o),
(267,766,o),
(285,605,cs),
(308,397,o),
(428,98,o),
(261,98,cs),
(163,98,o),
(212,231,o),
(104,231,cs),
(30,231,o),
(20,144,o),
(20,122,cs),
(20,26,o),
(104,-26,o),
(263,-26,cs)
);
}
);
width = 509;
}
);
metricLeft = "=O";
metricRight = "=H";
unicode = 74;
},
{
glyphname = K;
kernLeft = KO_B;
kernRight = KO_K;
lastChange = "2023-06-20 22:02:40 +0000";
layers = (
{
layerId = m01;
shapes = (
{
closed = 1;
nodes = (
(167,-16,o),
(243,1,o),
(243,74,cs),
(243,147,o),
(167,275,o),
(229,275,cs),
(336,275,o),
(404,74,o),
(452,28,cs),
(530,-47,o),
(593,-8,o),
(617,15,cs),
(640,39,o),
(682,104,o),
(608,178,cs),
(554,232,o),
(375,327,o),
(362,352,cs),
(326,424,o),
(557,534,o),
(613,592,cs),
(674,656,o),
(560,751,o),
(472,704,cs),
(391,661,o),
(217,316,o),
(196,397,cs),
(174,481,o),
(243,564,o),
(243,626,cs),
(243,699,o),
(167,716,o),
(134,716,cs),
(101,716,o),
(26,699,o),
(26,626,cs),
(26,553,o),
(76,452,o),
(76,349,cs),
(76,248,o),
(26,146,o),
(26,74,cs),
(26,1,o),
(101,-16,o),
(134,-16,cs)
);
}
);
width = 676;
}
);
metricLeft = "=H";
metricRight = "=H";
unicode = 75;
},
{
glyphname = L;
kernLeft = KO_E;
kernRight = KO_L;
lastChange = "2023-06-20 22:56:05 +0000";
layers = (
{
layerId = m01;
shapes = (
{
closed = 1;
nodes = (
(342,4,o),
(361,-16,o),
(437,-16,cs),
(569,-16,o),
(559,174,o),
(427,174,cs),
(355,174,o),
(333,127,o),
(251,128,cs),
(152,129,o),
(183,263,o),
(193,349,cs),
(204,444,o),
(233,553,o),
(233,626,cs),
(233,735,o),
(36,758,o),
(36,626,cs),
(36,553,o),
(66,452,o),
(66,349,cs),
(66,248,o),
(26,146,o),
(26,74,cs),
(26,1,o),
(91,-19,o),
(124,-16,cs)
);
}
);
width = 557;
}
);
metricLeft = "=H";
metricRight = "=H";
unicode = 76;
userData = {
KernOnName = L;
};
},
{
glyphname = M;
kernLeft = KO_M;
kernRight = KO_M;
lastChange = "2023-06-20 21:59:06 +0000";
layers = (
{
layerId = m01;
shapes = (
{
closed = 1;
nodes = (
(167,-16,o),
(243,1,o),
(243,74,cs),
(243,146,o),
(176,418,o),
(199,418,cs),
(241,418,o),
(256,355,o),
(268,312,cs),
(295,218,o),
(322,94,o),
(362,26,cs),
(385,-12,o),
(407,-16,o),
(435,-16,cs),
(463,-16,o),
(485,-12,o),
(508,26,cs),
(548,94,o),
(575,218,o),
(602,312,cs),
(614,355,o),
(629,418,o),
(671,418,cs),
(695,418,o),
(627,146,o),
(627,74,cs),
(627,1,o),
(703,-16,o),
(736,-16,cs),
(769,-16,o),
(844,1,o),
(844,74,cs),
(844,146,o),
(784,248,o),
(784,349,cs),
(784,452,o),
(804,553,o),
(804,626,cs),
(804,699,o),
(759,716,o),
(725,716,cs),
(690,716,o),
(658,720,o),
(629,690,cs),
(568,626,o),
(508,249,o),
(435,249,cs),
(362,249,o),
(302,626,o),
(241,690,cs),
(212,720,o),
(180,716,o),
(145,716,cs),
(111,716,o),
(66,699,o),
(66,626,cs),
(66,553,o),
(86,452,o),
(86,349,cs),
(86,248,o),
(26,146,o),
(26,74,cs),
(26,1,o),
(101,-16,o),
(134,-16,cs)
);
}
);
width = 870;
}
);
metricLeft = "=H";
metricRight = "=H";
unicode = 77;
},
{
glyphname = N;
kernLeft = KO_N;
kernRight = KO_N;
lastChange = "2023-06-20 22:28:19 +0000";
layers = (
{
layerId = m01;
shapes = (
{
closed = 1;
nodes = (
(158,-16,o),
(231,4,o),
(223,74,cs),
(193,336,o),
(202,434,o),
(219,418,cs),
(326,319,o),
(363,-16,o),
(562,-16,cs),
(600,-16,o),
(628,-4,o),
(628,75,cs),
(628,141,o),
(608,258,o),
(608,341,cs),
(608,458,o),
(648,556,o),
(648,620,cs),
(648,702,o),
(583,716,o),
(547,716,cs),
(507,716,o),
(451,698,o),
(451,627,cs),
(451,362,o),
(487,279,o),
(459,279,cs),
(396,279,o),
(297,716,o),
(116,716,cs),
(75,716,o),
(46,694,o),
(46,622,cs),
(46,562,o),
(66,440,o),
(66,358,cs),
(66,241,o),
(26,144,o),
(26,80,cs),
(26,-2,o),
(92,-16,o),
(122,-16,cs)
);
}
);
width = 674;
}
);
metricLeft = "=H";
metricRight = "=H";
unicode = 78;
},
{
glyphname = O;
kernLeft = KO_O;
kernRight = KO_O;
lastChange = "2023-06-20 22:56:05 +0000";
layers = (
{
layerId = m01;
shapes = (
{
closed = 1;
nodes = (
(602,-26,o),
(714,160,o),
(714,357,cs),
(714,556,o),
(602,726,o),
(368,726,cs),
(132,726,o),
(20,555,o),
(20,357,cs),
(20,160,o),
(132,-26,o),
(368,-26,cs)
);
},
{
closed = 1;
nodes = (
(284,53,o),
(255,129,o),
(255,355,cs),
(255,573,o),
(284,646,o),
(369,646,cs),
(452,646,o),
(479,573,o),
(479,355,cs),
(479,129,o),
(452,53,o),
(369,53,cs)
);
}
);
width = 734;
}
);
unicode = 79;
userData = {
KernOnName = O;
};
},
{
glyphname = P;
kernLeft = KO_P;
kernRight = KO_P;
lastChange = "2023-06-20 22:56:05 +0000";
layers = (
{
layerId = m01;
shapes = (
{
closed = 1;
nodes = (
(184,-16,o),
(243,16,o),
(243,66,cs),
(243,123,o),
(167,231,o),
(235,231,cs),
(320,231,ls),
(470,231,o),
(563,380,o),
(563,477,cs),
(563,576,o),
(470,716,o),
(320,716,cs),
(164,716,ls),
(132,716,o),
(36,704,o),
(36,618,cs),
(36,563,o),
(76,485,o),
(76,392,cs),
(76,287,o),
(26,143,o),
(26,78,cs),
(26,-1,o),
(100,-16,o),
(134,-16,cs)
);
},
{
closed = 1;
nodes = (
(231,290,o),
(209,339,o),
(209,475,cs),
(209,610,o),
(231,657,o),
(295,657,cs),
(356,657,o),
(375,615,o),
(375,475,cs),
(375,334,o),
(356,290,o),
(295,290,cs)
);
}
);
width = 583;
}
);
metricLeft = "=H";
metricRight = "=O";
unicode = 80;
userData = {
KernOnName = P;
};
},
{
glyphname = Q;
kernLeft = KO_Q;
kernRight = KO_Q;
lastChange = "2023-06-20 22:53:37 +0000";
layers = (
{
layerId = m01;
shapes = (
{
closed = 1;
nodes = (
(756,-107,o),
(738,92,o),
(648,33,cs),
(542,-36,o),
(527,43,o),
(389,43,cs),
(289,43,o),
(255,119,o),
(255,347,cs),
(255,571,o),
(284,646,o),
(369,646,cs),
(452,646,o),
(479,573,o),
(479,355,cs),
(479,168,o),
(451,136,o),
(451,100,cs),
(451,65,o),
(523,39,o),
(570,50,cs),
(655,70,o),
(714,230,o),
(714,366,cs),
(714,553,o),
(602,726,o),
(367,726,cs),
(132,726,o),
(20,552,o),
(20,363,cs),
(20,157,o),
(152,-34,o),
(388,-36,cs),
(531,-37,o),
(488,-107,o),
(588,-107,cs)
);
}
);
width = 735;
}
);
metricLeft = "=O";
metricRight = "=O";
unicode = 81;
},
{
glyphname = R;
kernLeft = KO_R;
kernRight = KO_R;
lastChange = "2023-06-20 22:56:05 +0000";
layers = (
{
layerId = m01;
shapes = (
{
closed = 1;
nodes = (
(179,-16,o),
(239,15,o),
(239,66,cs),
(239,123,o),
(163,231,o),
(231,231,cs),
(317,231,o),
(321,220,o),
(329,198,cs),
(359,116,o),
(368,66,o),
(393,29,cs),
(437,-36,o),
(506,-16,o),
(533,0,cs),
(577,26,o),
(594,90,o),
(564,128,cs),
(534,166,o),
(413,232,o),
(482,286,cs),
(500,300,o),
(569,361,o),
(569,462,cs),
(569,590,o),
(459,716,o),
(316,716,cs),
(160,716,ls),
(115,716,o),
(32,699,o),
(32,616,cs),
(32,566,o),
(62,444,o),
(62,351,cs),
(62,249,o),
(26,140,o),
(26,81,cs),
(26,-3,o),
(98,-16,o),
(130,-16,cs)
);
},
{
closed = 1;
nodes = (
(229,290,o),
(205,340,o),
(205,476,cs),
(205,611,o),
(229,657,o),
(297,657,cs),
(361,657,o),
(381,615,o),
(381,475,cs),
(381,335,o),
(361,290,o),
(297,290,cs)
);
}
);
width = 599;
}
);
metricLeft = "=H";
metricRight = "=O";
unicode = 82;
userData = {
KernOnName = R;
};
},
{
glyphname = S;
kernLeft = KO_S;
kernRight = KO_S;
lastChange = "2023-06-20 22:30:40 +0000";
layers = (
{
layerId = m01;
shapes = (
{
closed = 1;
nodes = (
(545,15,o),
(599,144,o),
(569,236,cs),
(510,415,o),
(127,477,o),
(192,603,cs),
(257,729,o),
(505,347,o),
(581,543,cs),
(649,717,o),
(350,738,o),
(215,706,cs),
(38,664,o),
(20,511,o),
(91,415,cs),
(189,282,o),
(480,212,o),
(425,105,cs),
(360,-21,o),
(112,359,o),
(36,164,cs),
(-32,-10,o),
(260,-36,o),
(387,-13,cs)
);
}
);
width = 617;
}
);
metricLeft = "=H";
metricRight = "=H";
unicode = 83;
},
{
glyphname = T;
kernLeft = KO_T;
kernRight = KO_T;
lastChange = "2024-08-26 20:12:14 +0000";
layers = (
{
layerId = m01;
shapes = (
{
closed = 1;
nodes = (
(351,-16,o),
(428,-2,o),
(428,78,cs),
(428,194,o),
(314,535,o),
(414,535,cs),
(442,535,o),
(489,520,o),
(535,520,cs),
(608,520,o),
(615,558,o),
(615,596,cs),
(615,634,o),
(608,700,o),
(527,700,cs),
(472,700,o),
(416,670,o),
(319,670,cs),
(221,670,o),
(169,700,o),
(114,700,cs),
(33,700,o),
(26,633,o),
(26,596,cs),
(26,558,o),
(33,520,o),
(107,520,cs),
(153,520,o),
(197,535,o),
(225,535,cs),
(325,535,o),
(211,195,o),
(211,79,cs),
(211,-2,o),
(287,-16,o),
(319,-16,cs)
);
}
);
width = 641;
}
);
metricLeft = "=H";
metricRight = "=H";
unicode = 84;
userData = {
KernOnName = T;
};
},
{
glyphname = U;
kernLeft = KO_U;
kernRight = KO_U;
lastChange = "2023-06-20 22:56:05 +0000";
layers = (
{
layerId = m01;
shapes = (
{
closed = 1;
nodes = (
(738,-26,o),
(576,337,o),
(638,585,cs),
(657,661,o),
(608,716,o),
(540,716,cs),
(534,716,o),
(414,719,o),
(437,605,cs),
(479,397,o),
(538,110,o),
(335,110,cs),
(130,110,o),
(190,397,o),
(232,605,cs),
(255,719,o),
(134,716,o),
(128,716,cs),
(60,716,o),
(11,661,o),
(30,585,cs),
(92,337,o),
(-70,-26,o),
(334,-26,cs)
);
}
);
width = 668;
}
);
metricLeft = "=H";
metricRight = "=H";
unicode = 85;
userData = {
KernOnName = U;
};
},
{
glyphname = V;
kernLeft = KO_V;
kernRight = KO_V;
lastChange = "2023-06-20 22:56:05 +0000";
layers = (
{
layerId = m01;
shapes = (
{
closed = 1;
nodes = (
(392,-16,o),
(403,-14,o),
(424,34,cs),
(451,96,o),
(487,186,o),
(513,278,cs),
(545,392,o),
(602,486,o),
(638,567,cs),
(668,638,o),
(638,689,o),
(608,703,cs),
(578,717,o),
(482,735,o),
(451,665,cs),
(416,585,o),
(434,444,o),
(409,330,cs),
(400,289,o),
(390,201,o),
(338,201,cs),
(286,201,o),
(276,289,o),
(267,330,cs),
(242,444,o),
(260,585,o),
(225,665,cs),
(194,735,o),
(98,717,o),
(68,703,cs),
(38,689,o),
(8,638,o),
(38,567,cs),
(74,486,o),
(131,392,o),
(163,278,cs),
(189,186,o),
(225,96,o),
(252,34,cs),
(273,-14,o),
(284,-16,o),
(338,-16,cs)
);
}
);
width = 676;
}
);
metricLeft = "=H";
metricRight = "=H";
unicode = 86;
userData = {
KernOnName = V;
};
},
{
glyphname = W;
kernLeft = KO_W;
kernRight = KO_W;
lastChange = "2023-06-20 22:56:05 +0000";
layers = (
{
layerId = m01;
shapes = (
{
closed = 1;
nodes = (
(386,-16,o),
(417,-7,o),
(438,34,cs),
(452,62,o),
(471,99,o),
(482,138,c),
(493,99,o),
(512,62,o),
(526,34,cs),
(547,-7,o),
(578,-16,o),
(612,-16,cs),
(646,-16,o),
(677,-7,o),
(698,34,cs),
(729,95,o),
(753,186,o),
(779,278,cs),
(811,392,o),
(883,486,o),
(919,567,cs),
(968,683,o),
(776,780,o),
(725,665,cs),
(690,585,o),
(714,443,o),
(683,330,cs),
(674,299,o),
(644,201,o),
(612,201,cs),
(572,201,o),
(552,367,o),
(552,407,cs),
(552,530,o),
(412,530,o),
(412,407,cs),
(412,367,o),
(392,201,o),
(352,201,cs),
(320,201,o),
(290,299,o),
(281,330,cs),
(250,443,o),
(274,585,o),
(239,665,cs),
(189,779,o),
(-7,687,o),
(44,567,cs),
(80,486,o),
(153,392,o),
(185,278,cs),
(211,186,o),
(235,95,o),
(266,34,cs),
(287,-7,o),
(318,-16,o),
(352,-16,cs)
);
}
);
width = 953;
}
);
metricLeft = "=H+10";
metricRight = "=H";
unicode = 87;
userData = {
KernOnName = W;
};
},
{
glyphname = X;
kernLeft = KO_X;
kernRight = KO_X;
lastChange = "2023-06-20 21:59:06 +0000";
layers = (
{
layerId = m01;
shapes = (
{
closed = 1;
nodes = (
(87,-7,o),
(142,-43,o),
(197,19,cs),
(239,67,o),
(280,239,o),
(335,239,cs),
(390,239,o),
(427,66,o),
(467,20,cs),
(522,-42,o),
(577,-6,o),
(603,16,cs),
(632,39,o),
(652,126,o),
(599,188,cs),
(552,242,o),
(482,288,o),
(413,355,c),
(483,423,o),
(551,469,o),
(598,522,cs),
(652,584,o),
(648,656,o),
(608,684,cs),
(579,705,o),
(524,744,o),
(468,681,cs),
(426,632,o),
(386,461,o),
(329,461,cs),
(274,461,o),
(238,634,o),
(198,681,cs),
(142,744,o),
(87,704,o),
(58,684,cs),
(17,655,o),
(12,574,o),
(66,512,cs),
(113,459,o),
(181,413,o),
(251,345,c),
(182,278,o),
(112,232,o),
(65,178,cs),
(12,116,o),
(32,38,o),
(61,15,cs)
);
}
);
width = 664;
}
);
metricLeft = "=H";
metricRight = "=H";
unicode = 88;
},
{
glyphname = Y;
kernLeft = KO_Y;
kernRight = KO_Y;
lastChange = "2023-06-20 22:56:43 +0000";
layers = (
{
layerId = m01;
shapes = (
{
closed = 1;
nodes = (
(366,-16,o),
(442,1,o),
(442,74,cs),
(442,141,o),
(393,234,o),
(393,327,cs),
(393,399,o),
(560,462,o),
(613,522,cs),
(667,584,o),
(653,656,o),
(613,684,cs),
(584,705,o),
(539,744,o),
(483,681,cs),
(441,632,o),
(381,461,o),
(334,461,cs),
(288,461,o),
(233,634,o),
(193,681,cs),
(137,744,o),
(92,704,o),
(63,684,cs),
(22,655,o),
(7,574,o),
(61,512,cs),
(113,454,o),
(274,393,o),
(274,325,cs),
(274,233,o),
(225,140,o),
(225,74,cs),
(225,1,o),
(300,-16,o),
(333,-16,cs)
);
}
);
width = 654;
}
);
metricLeft = "=H";
metricRight = "=H-20";
unicode = 89;
userData = {
KernOnName = Y;
};
},
{
glyphname = Z;
kernLeft = KO_Z;
kernRight = KO_Z;
lastChange = "2023-06-20 22:42:03 +0000";
layers = (
{
layerId = m01;
shapes = (
{
closed = 1;
nodes = (
(133,-16,o),
(226,11,o),
(307,11,cs),
(387,11,o),
(484,-16,o),
(526,-16,cs),
(594,-16,o),
(608,55,o),
(608,94,cs),
(608,132,o),
(594,209,o),
(534,209,cs),
(470,209,o),
(308,124,o),
(259,159,cs),
(179,216,o),
(588,462,o),
(588,603,cs),
(588,662,o),
(591,716,o),
(527,716,cs),
(482,716,o),
(388,689,o),
(307,689,cs),
(226,689,o),
(156,716,o),
(113,716,cs),
(45,716,o),
(31,647,o),
(31,608,cs),
(31,556,o),
(55,511,o),
(103,511,cs),
(168,511,o),
(311,594,o),
(353,552,cs),
(404,501,o),
(26,255,o),
(26,86,cs),
(26,33,o),
(23,-16,o),
(86,-16,cs)
);
}
);
width = 634;
}
);
metricLeft = "=H";
metricRight = "=H";
unicode = 90;
},
{
glyphname = a;
kernLeft = KO_a;
kernRight = KO_a;
lastChange = "2023-06-20 22:53:37 +0000";
layers = (
{
layerId = m01;
shapes = (
{
closed = 1;
nodes = (
(308,-16,o),
(370,25,o),
(370,82,cs),
(370,98,o),
(384,72,o),
(384,25,cs),
(384,-27,o),
(594,-56,o),
(561,85,cs),
(544,159,o),
(506,82,o),
(506,126,cs),
(506,355,o),
(476,526,o),
(262,526,cs),
(96,526,o),
(18,424,o),
(18,337,cs),
(18,288,o),
(43,262,o),
(92,262,cs),
(133,262,o),
(211,280,o),
(211,326,cs),
(211,490,o),
(480,447,o),
(371,329,cs),
(265,214,o),
(19,264,o),
(19,127,cs),
(19,61,o),
(77,-16,o),
(211,-16,cs)
);
},
{
closed = 1;
nodes = (
(176,236,o),
(371,268,o),
(371,221,cs),
(371,29,o),
(176,0,o),
(176,126,cs)
);
}
);
width = 593;
}
);
metricLeft = o;
metricRight = n;
unicode = 97;
},
{
glyphname = b;
kernLeft = KO_b;
kernRight = KO_b;
lastChange = "2023-06-20 22:56:05 +0000";
layers = (
{
layerId = m01;
shapes = (
{
closed = 1;
nodes = (
(166,-16,o),
(173,10,o),
(205,10,cs),
(243,10,o),
(259,-16,o),
(326,-16,cs),
(497,-16,o),
(559,112,o),
(559,254,cs),
(559,399,o),
(497,516,o),
(328,515,cs),
(293,515,o),
(279,516,o),
(233,500,cs),
(195,486,o),
(175,452,o),
(175,418,cs),
(175,402,o),
(161,428,o),
(161,450,cs),
(161,500,o),
(196,528,o),
(204,544,cs),
(229,592,o),
(236,624,o),
(236,670,cs),
(236,747,o),
(160,766,o),
(127,766,cs),
(94,766,o),
(19,747,o),
(19,670,cs),
(19,592,o),
(69,484,o),
(69,374,cs),
(69,266,o),
(19,157,o),
(19,80,cs),
(19,2,o),
(94,-16,o),
(127,-16,cs)
);
},
{
closed = 1;
nodes = (
(249,48,o),
(230,100,o),
(230,254,cs),
(230,403,o),
(249,452,o),
(304,452,cs),
(358,452,o),
(376,403,o),
(376,254,cs),
(376,100,o),
(358,48,o),
(304,48,cs)
);
}
);
width = 577;
}
);
metricLeft = n;
metricRight = o;
unicode = 98;
userData = {
KernOnName = b;
};
},
{
glyphname = c;
kernLeft = KO_e;
kernRight = KO_c;
lastChange = "2023-06-20 22:56:05 +0000";
layers = (
{
layerId = m01;
shapes = (
{
closed = 1;
nodes = (
(392,-26,o),
(464,37,o),
(464,81,cs),
(464,107,o),
(439,121,o),
(418,121,cs),
(371,121,o),
(389,48,o),
(297,48,cs),
(222,48,o),
(201,97,o),
(201,272,cs),
(201,415,o),
(215,452,o),
(273,452,cs),
(360,452,o),
(315,371,o),
(341,319,cs),
(387,228,o),
(525,335,o),
(465,430,cs),
(438,473,o),
(362,526,o),
(263,526,cs),
(111,526,o),
(18,399,o),
(18,261,cs),
(18,112,o),
(125,-26,o),
(284,-26,cs)
);
}
);
width = 498;
}
);
metricLeft = o;
metricRight = o;
unicode = 99;
userData = {
KernOnName = c;
};
},
{
glyphname = d;
kernLeft = KO_d;
kernRight = KO_d;
lastChange = "2023-06-20 22:53:37 +0000";
layers = (
{
layerId = m01;
shapes = (
{
closed = 1;
nodes = (
(318,-16,o),
(334,10,o),
(372,10,cs),
(404,10,o),
(411,-16,o),
(450,-16,cs),
(483,-16,o),
(558,2,o),
(558,80,cs),
(558,157,o),
(508,266,o),
(508,374,cs),
(508,484,o),
(558,592,o),
(558,670,cs),
(558,747,o),
(483,766,o),
(450,766,cs),
(417,766,o),
(341,747,o),
(341,670,cs),
(341,624,o),
(348,592,o),
(373,544,cs),
(381,528,o),
(416,490,o),
(416,440,cs),
(416,418,o),
(402,402,o),
(402,418,cs),
(402,452,o),
(382,486,o),
(344,500,cs),
(298,516,o),
(284,515,o),
(249,515,cs),
(80,516,o),
(18,399,o),
(18,254,cs),
(18,112,o),
(80,-16,o),
(251,-16,cs)
);
},
{
closed = 1;
nodes = (
(219,48,o),
(201,100,o),
(201,254,cs),
(201,403,o),
(219,452,o),
(273,452,cs),
(329,452,o),
(347,403,o),
(347,254,cs),
(347,100,o),
(329,48,o),
(273,48,cs)
);
}
);
width = 586;
}
);
metricLeft = o;
metricRight = n;
unicode = 100;
},
{
glyphname = e;
kernLeft = KO_e;
kernRight = KO_e;
lastChange = "2023-06-20 21:59:06 +0000";
layers = (
{
layerId = m01;
shapes = (
{
closed = 1;
nodes = (
(379,-26,o),
(466,29,o),
(466,81,cs),
(466,101,o),
(449,119,o),
(422,119,cs),
(331,119,o),
(373,48,o),
(295,48,cs),
(175,48,o),
(174,218,o),
(209,218,cs),
(289,218,o),
(486,184,o),
(486,372,cs),
(486,406,o),
(442,526,o),
(274,526,cs),
(103,526,o),
(18,399,o),
(18,254,cs),
(18,112,o),
(123,-26,o),
(294,-26,cs)
);
},
{
closed = 1;
nodes = (
(202,370,o),
(135,452,o),
(265,452,cs),
(357,452,o),
(339,316,o),
(256,276,cs),
(227,262,o),
(208,249,o),
(207,266,cs)
);
}
);
width = 504;
}
);
metricLeft = o;
metricRight = o;
unicode = 101;
},
{
glyphname = f;
kernLeft = KO_f;
kernRight = KO_f;
lastChange = "2023-06-20 22:56:05 +0000";
layers = (
{
layerId = m01;
shapes = (
{
closed = 1;
nodes = (
(169,-16,o),
(246,0,o),
(246,83,cs),
(246,145,o),
(202,265,o),
(202,336,cs),
(202,394,o),
(232,423,o),
(294,433,c),
(330,433,o),
(325,517,o),
(279,517,cs),
(253,517,o),
(185,491,o),
(185,428,cs),
(185,412,o),
(174,429,o),
(171,451,cs),
(165,500,o),
(155,557,o),
(159,599,cs),
(169,691,o),
(262,553,o),
(333,628,cs),
(401,700,o),
(289,788,o),
(162,788,cs),
(80,788,o),
(29,732,o),
(29,665,cs),
(29,606,o),
(69,502,o),
(77,409,cs),
(78,396,o),
(51,393,o),
(51,367,cs),
(51,340,o),
(78,337,o),
(77,326,cs),
(68,235,o),
(29,144,o),
(29,84,cs),
(29,0,o),
(104,-16,o),
(137,-16,cs)
);
}
);
width = 362;
}
);
metricLeft = "=n+10";
metricRight = "=n-20";
unicode = 102;
userData = {
KernOnName = f;
};
},
{
glyphname = g;
kernLeft = KO_g;
kernRight = KO_g;
lastChange = "2023-06-20 22:56:24 +0000";
layers = (
{
layerId = m01;
shapes = (
{
closed = 1;
nodes = (
(75,-307,o),
(393,-291,o),
(492,-176,cs),
(561,-96,o),
(519,24,o),
(422,24,cs),
(305,24,o),
(123,-17,o),
(101,76,cs),
(97,95,o),
(97,126,o),
(113,112,cs),
(129,98,o),
(171,54,o),
(270,54,cs),
(433,54,o),
(513,175,o),
(513,290,cs),
(513,351,o),
(490,403,o),
(453,445,c),
(500,488,o),
(496,384,o),
(573,384,cs),
(661,384,o),
(661,518,o),
(546,518,cs),
(512,518,o),
(442,506,o),
(433,468,c),
(398,511,o),
(333,536,o),
(263,536,cs),
(111,536,o),
(27,417,o),
(27,294,cs),
(27,231,o),
(49,184,o),
(77,143,cs),
(98,112,o),
(18,76,o),
(18,6,cs),
(18,-143,o),
(388,-11,o),
(388,-115,cs),
(388,-208,o),
(75,-21,o),
(75,-164,cs)
);
},
{
closed = 1;
nodes = (
(218,118,o),
(200,163,o),
(200,291,cs),
(200,419,o),
(218,461,o),
(271,461,cs),
(323,461,o),
(340,420,o),
(340,291,cs),
(340,162,o),
(323,118,o),
(271,118,cs)
);
}
);
width = 641;
}
);
metricLeft = o;
metricRight = "=o-13";
unicode = 103;
userData = {
KernOnName = g;
};
},
{
glyphname = h;
kernLeft = KO_h;
kernRight = KO_h;
lastChange = "2023-06-20 22:56:05 +0000";
layers = (
{
layerId = m01;
shapes = (
{
closed = 1;
nodes = (
(160,-16,o),
(232,1,o),
(232,81,cs),
(232,145,o),
(186,286,o),
(186,353,cs),
(186,412,o),
(222,442,o),
(297,442,cs),
(325,442,o),
(399,431,o),
(399,379,cs),
(399,374,ls),
(399,268,o),
(353,152,o),
(353,84,cs),
(353,-1,o),
(425,-16,o),
(458,-16,cs),
(490,-16,o),
(562,-1,o),
(562,85,cs),
(562,151,o),
(520,267,o),
(516,374,cs),
(515,399,ls),
(513,456,o),
(465,516,o),
(338,516,cs),
(221,516,o),
(175,465,o),
(175,418,cs),
(175,402,o),
(161,428,o),
(161,454,cs),
(161,495,o),
(194,527,o),
(204,544,cs),
(221,572,o),
(236,620,o),
(236,661,cs),
(236,747,o),
(168,766,o),
(129,766,cs),
(94,766,o),
(19,750,o),
(19,666,cs),
(19,597,o),
(69,483,o),
(69,374,cs),
(69,269,o),
(23,152,o),
(23,84,cs),
(23,0,o),
(94,-16,o),
(126,-16,cs)
);
}
);
width = 603;
}
);
metricLeft = n;
metricRight = "=n+13";
unicode = 104;
userData = {
KernOnName = h;
};
},
{
glyphname = i;
kernLeft = KO_i;
kernRight = KO_i;
lastChange = "2023-06-20 22:53:37 +0000";
layers = (
{
layerId = m01;
shapes = (
{
closed = 1;
nodes = (
(180,-16,o),
(248,2,o),
(248,78,cs),
(248,153,o),
(216,154,o),
(216,259,cs),
(216,391,o),
(269,496,o),
(147,496,cs),
(25,496,o),
(79,391,o),
(79,259,cs),
(79,154,o),
(47,153,o),
(47,78,cs),
(47,2,o),
(114,-16,o),
(147,-16,cs)
);
},
{
closed = 1;
nodes = (
(220,542,o),
(254,576,o),
(254,639,cs),
(254,699,o),
(222,736,o),
(147,736,cs),
(73,736,o),
(39,702,o),
(39,639,cs),
(39,579,o),
(71,542,o),
(147,542,cs)
);
}
);
width = 307;
}
);
metricLeft = "=n+20";
metricRight = "=n+25";
unicode = 105;
},
{
glyphname = j;
kernLeft = KO_j;
kernRight = KO_j;
lastChange = "2023-06-20 22:56:05 +0000";
layers = (
{
layerId = m01;
shapes = (
{
closed = 1;
nodes = (
(174,-267,o),
(191,0,o),
(191,164,cs),
(191,271,o),
(230,342,o),
(230,420,cs),
(230,497,o),
(165,516,o),
(132,516,cs),
(99,516,o),
(34,497,o),
(34,420,cs),
(34,342,o),
(46,273,o),
(74,164,cs),
(84,125,o),
(81,38,o),
(56,-2,cs),
(35,-36,o),
(10,-45,o),
(-37,-77,cs),
(-157,-159,o),
(-85,-263,o),
(-7,-264,cs)
);
},
{
closed = 1;
nodes = (
(205,572,o),
(239,606,o),
(239,669,cs),
(239,729,o),
(207,766,o),
(132,766,cs),
(58,766,o),
(24,732,o),
(24,669,cs),
(24,609,o),
(56,572,o),
(132,572,cs)
);
}
);
width = 277;
}
);
metricLeft = "=n-120";
metricRight = "=n+10";
unicode = 106;
userData = {
KernOnName = j;
};
},
{
glyphname = k;
kernLeft = KO_k;
kernRight = KO_k;
lastChange = "2023-06-20 22:56:05 +0000";
layers = (
{
layerId = m01;
shapes = (
{
closed = 1;
nodes = (
(446,-76,o),
(593,73,o),
(501,165,cs),
(471,195,o),
(334,273,o),
(315,303,cs),
(261,390,o),
(423,355,o),
(469,374,cs),
(562,412,o),
(459,557,o),
(339,502,cs),
(261,466,o),
(204,418,o),
(185,382,cs),
(176,364,o),
(171,428,o),
(171,450,cs),
(171,532,o),
(226,569,o),
(226,670,cs),
(226,809,o),
(29,786,o),
(29,670,cs),
(29,592,o),
(79,484,o),
(79,374,cs),
(79,266,o),
(19,157,o),
(19,80,cs),
(19,-48,o),
(236,-47,o),
(236,80,cs),
(236,127,o),
(212,219,o),
(202,263,cs),
(195,296,o),
(226,294,o),
(234,282,cs),
(287,201,o),
(306,63,o),
(353,15,cs)
);
}
);
width = 558;
}
);
metricLeft = n;
metricRight = n;
unicode = 107;
userData = {
KernOnName = k;
};
},
{
glyphname = l;
kernLeft = KO_l;
kernRight = KO_l;
lastChange = "2023-06-20 22:53:37 +0000";
layers = (
{
layerId = m01;
shapes = (
{
closed = 1;
nodes = (
(222,-16,o),
(279,4,o),
(279,72,cs),
(279,140,o),
(223,115,o),
(196,199,cs),
(178,255,o),
(186,310,o),
(186,374,cs),
(186,482,o),
(236,597,o),
(236,665,cs),
(236,750,o),
(159,766,o),
(127,766,cs),
(95,766,o),
(19,750,o),
(19,666,cs),
(19,597,o),
(69,484,o),
(69,373,cs),
(69,273,o),
(29,145,o),
(29,89,cs),
(29,-4,o),
(141,-16,o),
(176,-16,cs)
);
}
);
width = 312;
}
);
metricLeft = n;
metricRight = "=n+5";
unicode = 108;
},
{
glyphname = m;
kernLeft = KO_r;
kernRight = KO_n;
lastChange = "2023-06-20 22:56:05 +0000";
layers = (
{
layerId = m01;
shapes = (
{
closed = 1;
nodes = (
(156,-16,o),
(228,0,o),
(228,83,cs),
(228,150,o),
(182,271,o),
(182,366,cs),
(182,400,o),
(188,442,o),
(257,442,cs),
(293,442,o),
(365,431,o),
(365,379,cs),
(365,374,ls),
(365,268,o),
(319,152,o),
(319,84,cs),
(319,-1,o),
(391,-16,o),
(424,-16,cs),
(456,-16,o),
(528,-1,o),
(528,85,cs),
(528,151,o),
(486,267,o),
(482,374,cs),
(481,399,ls),
(479,448,o),
(448,516,o),
(318,516,cs),
(208,516,o),
(171,468,o),
(171,418,cs),
(171,402,o),
(157,428,o),
(157,449,cs),
(157,481,o),
(189,490,o),
(181,518,cs),
(167,567,o),
(65,540,o),
(51,487,cs),
(43,456,o),
(65,418,o),
(65,362,cs),
(65,281,o),
(19,148,o),
(19,82,cs),
(19,1,o),
(90,-16,o),
(124,-16,cs)
);
},
{
closed = 1;
nodes = (
(756,-16,o),
(828,-1,o),
(828,85,cs),
(828,151,o),
(786,267,o),
(782,374,cs),
(781,399,ls),
(779,456,o),
(735,516,o),
(625,516,cs),
(507,516,o),
(475,447,o),
(475,402,cs),
(475,400,o),
(471,424,o),
(470,423,c),
(480,375,l),
(488,419,o),
(502,442,o),
(567,442,cs),
(612,442,o),
(665,431,o),
(665,359,cs),
(665,291,o),
(619,145,o),
(619,81,cs),
(619,1,o),
(690,-16,o),
(724,-16,cs)
);
}
);
width = 856;
}
);
metricLeft = n;
metricRight = n;
unicode = 109;
userData = {
KernOnName = m;
};
},
{
glyphname = n;
kernLeft = KO_r;
kernRight = KO_n;
lastChange = "2023-06-20 22:56:05 +0000";
layers = (
{
layerId = m01;
shapes = (
{
closed = 1;
nodes = (
(156,-16,o),
(228,1,o),
(228,81,cs),
(228,145,o),
(182,286,o),
(182,353,cs),
(182,413,o),
(218,442,o),
(295,442,cs),
(343,442,o),
(395,431,o),
(395,358,cs),
(395,290,o),
(349,145,o),
(349,81,cs),
(349,1,o),
(420,-16,o),
(454,-16,cs),
(486,-16,o),
(558,-1,o),
(558,85,cs),
(558,151,o),
(516,267,o),
(512,374,cs),
(511,399,ls),
(509,456,o),
(461,516,o),
(334,516,cs),
(217,516,o),
(171,465,o),
(171,418,cs),
(171,402,o),
(157,428,o),
(157,449,cs),
(157,481,o),
(189,490,o),
(181,518,cs),
(167,567,o),
(65,540,o),
(51,487,cs),
(43,456,o),
(65,418,o),
(65,362,cs),
(65,281,o),
(19,148,o),
(19,82,cs),
(19,1,o),
(90,-16,o),
(123,-16,cs)
);
}
);
width = 586;
}
);
unicode = 110;
userData = {
KernOnName = n;
};
},
{
glyphname = o;
kernLeft = KO_o;
kernRight = KO_o;
lastChange = "2023-06-20 22:56:05 +0000";
layers = (
{
layerId = m01;
shapes = (
{
closed = 1;
nodes = (
(445,-26,o),
(530,112,o),
(530,254,cs),
(530,399,o),
(445,526,o),
(274,526,cs),
(103,526,o),
(18,399,o),
(18,254,cs),
(18,112,o),
(103,-26,o),
(274,-26,cs)
);
},
{
closed = 1;
nodes = (
(212,48,o),
(191,100,o),
(191,254,cs),
(191,403,o),
(212,452,o),
(275,452,cs),
(337,452,o),
(357,403,o),
(357,254,cs),
(357,100,o),
(337,48,o),
(275,48,cs)
);
}
);
width = 548;
}
);
unicode = 111;
userData = {
KernOnName = o;
};
},
{
glyphname = p;
kernLeft = KO_p;
kernRight = KO_p;
lastChange = "2023-06-20 22:56:05 +0000";
layers = (
{
layerId = m01;
shapes = (
{
closed = 1;
nodes = (
(160,-266,o),
(232,-248,o),
(232,-170,cs),
(232,-119,o),
(152,-60,o),
(199,15,cs),
(214,39,o),
(236,-16,o),
(329,-16,cs),
(500,-16,o),
(555,112,o),
(555,254,cs),
(555,399,o),
(500,516,o),
(329,516,cs),
(275,516,o),
(230,505,o),
(194,484,cs),
(173,470,o),
(163,441,o),
(163,416,cs),
(163,400,o),
(149,426,o),
(149,448,cs),
(149,459,o),
(151,467,o),
(155,474,cs),
(163,489,o),
(182,501,o),
(165,527,cs),
(139,567,o),
(63,526,o),
(41,487,cs),
(30,468,o),
(19,446,o),
(19,420,cs),
(19,342,o),
(69,234,o),
(69,124,cs),
(69,16,o),
(23,-93,o),
(23,-170,cs),
(23,-248,o),
(94,-266,o),
(127,-266,cs)
);
},
{
closed = 1;
nodes = (
(245,48,o),
(226,100,o),
(226,254,cs),
(226,403,o),
(245,452,o),
(300,452,cs),
(354,452,o),
(372,403,o),
(372,254,cs),
(372,100,o),
(354,48,o),
(300,48,cs)
);
}
);
width = 573;
}
);
metricLeft = n;
metricRight = o;
unicode = 112;
userData = {
KernOnName = p;
};
},
{
glyphname = q;
kernLeft = KO_q;
kernRight = KO_q;
lastChange = "2023-06-20 22:53:37 +0000";
layers = (
{
layerId = m01;
shapes = (
{
closed = 1;
nodes = (
(479,-266,o),
(550,-248,o),
(550,-170,cs),
(550,-93,o),
(504,16,o),
(504,124,cs),
(504,234,o),
(554,342,o),
(554,420,cs),
(554,446,o),
(543,468,o),
(532,487,cs),
(510,526,o),
(434,567,o),
(408,527,cs),
(391,501,o),
(410,489,o),
(418,474,cs),
(422,467,o),
(424,459,o),
(424,448,cs),
(424,426,o),
(410,400,o),
(410,416,cs),
(410,441,o),
(400,470,o),
(379,484,cs),
(343,505,o),
(298,516,o),
(244,516,cs),
(73,516,o),
(18,399,o),
(18,254,cs),
(18,112,o),
(73,-16,o),
(244,-16,cs),
(337,-16,o),
(359,39,o),
(374,15,cs),
(421,-60,o),
(341,-119,o),
(341,-170,c),
(341,-248,o),
(413,-266,o),
(446,-266,cs)
);
},
{
closed = 1;
nodes = (
(219,48,o),
(201,100,o),
(201,254,cs),
(201,403,o),
(219,452,o),
(273,452,cs),
(329,452,o),
(347,403,o),
(347,254,cs),
(347,100,o),
(329,48,o),
(273,48,cs)
);
}
);
width = 582;
}
);
metricLeft = o;
metricRight = n;
unicode = 113;
},
{
glyphname = r;
kernLeft = KO_r;
kernRight = KO_r;
lastChange = "2023-06-20 22:56:05 +0000";
layers = (
{
layerId = m01;
shapes = (
{
closed = 1;
nodes = (
(156,-16,o),
(228,-1,o),
(228,85,cs),
(228,154,o),
(182,258,o),
(182,378,cs),
(182,396,o),
(183,422,o),
(206,422,cs),
(250,422,o),
(247,322,o),
(346,322,cs),
(484,322,o),
(484,516,o),
(324,516,cs),
(268,516,o),
(171,492,o),
(171,418,cs),
(171,402,o),
(157,428,o),
(157,449,cs),
(157,481,o),
(189,490,o),
(181,518,cs),
(167,567,o),
(65,540,o),
(51,487,cs),
(43,456,o),
(65,418,o),
(65,362,cs),
(65,281,o),
(19,148,o),
(19,82,cs),
(19,0,o),
(91,-16,o),
(124,-16,cs)
);
}
);
width = 465;
}
);
metricLeft = n;
metricRight = "=n-10";
unicode = 114;
userData = {
KernOnName = r;
};
},
{
glyphname = s;
kernLeft = KO_s;
kernRight = KO_s;
lastChange = "2023-06-20 22:58:10 +0000";
layers = (
{
layerId = m01;
shapes = (
{
closed = 1;
nodes = (
(441,16,o),
(472,109,o),
(453,168,cs),
(412,294,o),
(118,341,o),
(165,432,cs),
(214,526,o),
(383,215,o),
(452,398,cs),
(499,524,o),
(272,522,o),
(175,502,cs),
(30,472,o),
(6,368,o),
(53,301,cs),
(123,202,o),
(372,152,o),
(332,75,cs),
(283,-19,o),
(94,291,o),
(25,108,cs),
(-23,-18,o),
(208,-20,o),
(299,-6,cs)
);
}
);
width = 486;
}
);
metricLeft = n;
metricRight = n;
unicode = 115;
userData = {
KernOnName = s;
};
},
{
glyphname = t;
kernLeft = KO_t;
kernRight = KO_t;
lastChange = "2024-08-26 20:12:05 +0000";
layers = (
{
layerId = m01;
shapes = (
{
closed = 1;
nodes = (
(433,-16,o),
(411,208,o),
(260,132,cs),
(187,95,o),
(204,288,o),
(216,354,cs),
(228,421,o),
(256,532,o),
(256,610,cs),
(256,687,o),
(190,706,o),
(157,706,cs),
(124,706,o),
(69,687,o),
(69,610,cs),
(69,532,o),
(90,424,o),
(90,354,cs),
(90,246,o),
(59,157,o),
(59,80,cs),
(59,2,o),
(158,-16,o),
(236,-16,cs)
);
},
{
closed = 1;
nodes = (
(281,468,o),
(368,424,o),
(368,512,cs),
(368,608,o),
(281,568,o),
(165,568,cs),
(102,568,o),
(9,602,o),
(9,513,cs),
(9,421,o),
(97,468,o),
(159,468,cs)
);
}
);
width = 407;
}
);
metricLeft = "=n-10";
metricRight = n;
unicode = 116;
userData = {
KernOnName = t;
};
},
{
glyphname = u;
kernLeft = KO_u;
kernRight = KO_u;
lastChange = "2023-06-20 22:56:05 +0000";
layers = (
{
layerId = m01;
shapes = (
{
closed = 1;
nodes = (
(353,-26,o),
(397,36,o),
(397,82,cs),
(397,110,o),
(411,56,o),
(411,25,cs),
(411,-27,o),
(621,-56,o),
(588,85,cs),
(571,159,o),
(533,82,o),
(533,126,cs),
(533,224,o),
(539,367,o),
(539,399,cs),
(539,501,o),
(477,516,o),
(441,516,cs),
(401,516,o),
(360,497,o),
(360,422,cs),
(360,353,o),
(396,211,o),
(396,151,cs),
(396,88,o),
(355,58,o),
(271,58,cs),
(180,58,o),
(163,93,o),
(163,155,cs),
(163,244,o),
(198,347,o),
(198,420,cs),
(198,498,o),
(158,516,o),
(122,516,cs),
(86,516,o),
(19,498,o),
(19,412,cs),
(19,351,o),
(52,231,o),
(56,125,cs),
(59,45,o),
(107,-26,o),
(234,-26,cs)
);
}
);
width = 620;
}
);
metricLeft = n;
metricRight = n;
unicode = 117;
userData = {
KernOnName = u;
};
},
{
glyphname = v;
kernLeft = KO_v;
kernRight = KO_v;
lastChange = "2023-06-20 22:56:05 +0000";
layers = (
{
layerId = m01;
shapes = (
{
closed = 1;
nodes = (
(307,-16,o),
(325,-12,o),
(348,20,cs),
(380,65,o),
(405,130,o),
(427,197,cs),
(453,280,o),
(505,349,o),
(535,408,cs),
(560,459,o),
(510,496,o),
(485,506,cs),
(461,516,o),
(388,530,o),
(362,479,cs),
(333,421,o),
(340,322,o),
(319,235,cs),
(309,193,o),
(297,141,o),
(279,141,cs),
(261,141,o),
(248,193,o),
(238,235,cs),
(217,322,o),
(224,421,o),
(196,479,cs),
(170,530,o),
(97,516,o),
(72,506,cs),
(48,496,o),
(5,462,o),
(23,408,cs),
(43,349,o),
(104,280,o),
(131,197,cs),
(152,130,o),
(177,65,o),
(210,20,cs),
(233,-11,o),
(251,-16,o),
(279,-16,cs)
);
}
);
width = 570;
}
);
metricLeft = "=n";
metricRight = n;
unicode = 118;
userData = {
KernOnName = v;
};
},
{
glyphname = w;
kernLeft = KO_w;
kernRight = KO_w;
lastChange = "2023-06-20 22:56:05 +0000";
layers = (
{
layerId = m01;
shapes = (
{
closed = 1;
nodes = (
(310,-8,o),
(342,-7,o),
(360,21,cs),
(372,39,o),
(377,66,o),
(386,96,c),
(395,66,o),
(400,39,o),
(412,21,cs),
(430,-7,o),
(462,-8,o),
(490,-8,cs),
(517,-8,o),
(549,-7,o),
(565,21,cs),
(590,65,o),
(612,131,o),
(632,196,cs),
(659,279,o),
(718,348,o),
(747,406,cs),
(787,492,o),
(610,564,o),
(570,468,cs),
(545,408,o),
(562,317,o),
(538,233,c),
(530,212,o),
(515,142,o),
(490,142,cs),
(458,142,o),
(442,262,o),
(442,291,cs),
(442,380,o),
(330,380,o),
(330,291,cs),
(330,262,o),
(314,142,o),
(282,142,cs),
(257,142,o),
(242,212,o),
(234,233,c),
(210,317,o),
(227,408,o),
(202,468,cs),
(162,564,o),
(-15,492,o),
(25,406,cs),
(54,348,o),
(113,279,o),
(140,196,cs),
(160,131,o),
(182,65,o),
(207,21,cs),
(223,-7,o),
(255,-8,o),
(282,-8,cs)
);
}
);
width = 781;
}
);
metricLeft = n;
metricRight = n;
unicode = 119;
userData = {
KernOnName = w;
};
},
{
glyphname = x;
kernLeft = KO_x;
kernRight = KO_x;
lastChange = "2023-06-20 22:53:37 +0000";
layers = (
{
layerId = m01;
shapes = (
{
closed = 1;
nodes = (
(519,40,o),
(510,117,o),
(449,175,cs),
(399,224,o),
(387,212,o),
(336,255,c),
(387,298,o),
(398,286,o),
(449,336,cs),
(510,393,o),
(519,464,o),
(473,495,cs),
(447,513,o),
(417,538,o),
(357,480,cs),
(312,437,o),
(287,343,o),
(257,343,cs),
(229,343,o),
(204,440,o),
(162,480,cs),
(103,538,o),
(73,514,o),
(47,495,cs),
(3,464,o),
(20,383,o),
(81,326,cs),
(130,277,o),
(133,288,o),
(183,245,c),
(133,202,o),
(122,214,o),
(71,165,cs),
(10,107,o),
(3,34,o),
(47,6,cs),
(73,-11,o),
(103,-38,o),
(164,20,cs),
(207,63,o),
(233,157,o),
(263,157,cs),
(291,157,o),
(315,61,o),
(356,20,cs),
(417,-38,o),
(448,-13,o),
(472,5,cs)
);
}
);
width = 535;
}
);
metricLeft = "=n";
metricRight = "=n+5";
unicode = 120;
},
{
glyphname = y;
kernLeft = KO_y;
kernRight = KO_y;
lastChange = "2023-06-20 22:56:05 +0000";
layers = (
{
layerId = m01;
shapes = (
{
closed = 1;
nodes = (
(240,-264,o),
(303,-139,o),
(372,15,cs),
(430,145,o),
(495,296,o),
(552,408,cs),
(578,458,o),
(520,496,o),
(495,506,cs),
(471,516,o),
(422,530,o),
(396,479,cs),
(373,433,o),
(354,141,o),
(302,141,cs),
(249,141,o),
(218,431,o),
(195,479,cs),
(169,530,o),
(107,516,o),
(82,506,cs),
(58,496,o),
(5,462,o),
(23,408,cs),
(49,331,o),
(210,105,o),
(210,20,cs),
(210,-111,o),
(143,-59,o),
(95,-87,cs),
(10,-137,o),
(48,-264,o),
(147,-264,cs)
);
}
);
width = 587;
}
);
metricLeft = n;
metricRight = "=n";
unicode = 121;
userData = {
KernOnName = y;
};
},
{
glyphname = z;
kernLeft = KO_z;
kernRight = KO_z;
lastChange = "2023-06-20 22:53:37 +0000";
layers = (
{
layerId = m01;
shapes = (
{
closed = 1;
nodes = (
(118,-16,o),
(196,6,o),
(260,6,cs),
(324,6,o),
(402,-16,o),
(436,-16,cs),
(490,-16,o),
(501,41,o),
(501,72,cs),
(501,103,o),
(490,176,o),
(441,176,cs),
(394,176,o),
(258,106,o),
(233,137,cs),
(182,201,o),
(501,304,o),
(501,435,cs),
(501,459,o),
(490,516,o),
(435,516,cs),
(402,516,o),
(324,495,o),
(260,495,cs),
(196,495,o),
(139,516,o),
(105,516,cs),
(50,516,o),
(39,461,o),
(39,429,cs),
(39,390,o),
(56,344,o),
(96,344,cs),
(148,344,o),
(251,421,o),
(285,387,cs),
(328,344,o),
(19,218,o),
(19,71,cs),
(19,43,o),
(30,-16,o),
(85,-16,cs)
);
}
);
width = 529;
}
);
metricLeft = n;
metricRight = n;
unicode = 122;
},
{
glyphname = zero;
kernLeft = KO_zero;
kernRight = KO_zero;
lastChange = "2023-06-20 22:50:33 +0000";
layers = (
{
layerId = m01;
shapes = (
{
closed = 1;
nodes = (
(497,-26,o),
(609,160,o),
(609,357,cs),
(609,556,o),
(497,726,o),
(313,726,cs),
(127,726,o),
(15,555,o),
(15,357,cs),
(15,160,o),
(127,-26,o),
(313,-26,cs)
);
},
{
closed = 1;
nodes = (
(244,53,o),
(220,129,o),
(220,355,cs),
(220,573,o),
(244,646,o),
(314,646,cs),
(382,646,o),
(404,573,o),
(404,355,cs),
(404,129,o),
(382,53,o),
(314,53,cs)
);
}
);
width = 624;
}
);
unicode = 48;
},
{
glyphname = one;
kernLeft = KO_one;
kernRight = KO_one;
lastChange = "2023-06-20 22:43:41 +0000";
layers = (
{
layerId = m01;
shapes = (
{
closed = 1;
nodes = (
(325,-3,o),
(422,-38,o),
(422,61,cs),
(422,118,o),
(388,118,o),
(326,118,cs),
(260,118,o),
(307,553,o),
(307,626,cs),
(307,691,o),
(270,716,o),
(225,716,cs),
(137,716,o),
(192,622,o),
(99,622,cs),
(26,622,o),
(22,513,o),
(69,478,cs),
(93,460,o),
(135,455,o),
(163,487,c),
(172,443,o),
(188,119,o),
(122,119,cs),
(64,119,o),
(25,119,o),
(25,53,cs),
(25,-40,o),
(103,-3,o),
(216,-3,cs)
);
}
);
width = 447;
}
);
unicode = 49;
},
{
glyphname = two;
kernLeft = KO_two;
kernRight = KO_two;
lastChange = "2023-06-20 22:44:40 +0000";
layers = (
{
layerId = m01;
shapes = (
{
closed = 1;
nodes = (
(137,-16,o),
(190,11,o),
(282,11,cs),
(373,11,o),
(414,-16,o),
(458,-16,cs),
(526,-16,o),
(538,49,o),
(538,80,cs),
(538,134,o),
(502,189,o),
(458,189,cs),
(404,189,o),
(268,107,o),
(228,150,cs),
(168,214,o),
(498,372,o),
(498,570,cs),
(498,705,o),
(346,726,o),
(274,726,cs),
(196,726,o),
(130,701,o),
(108,690,cs),
(62,667,o),
(32,618,o),
(32,570,cs),
(32,465,o),
(176,471,o),
(187,554,cs),
(198,636,o),
(351,642,o),
(351,558,cs),
(351,437,o),
(38,267,o),
(26,65,cs),
(24,33,o),
(17,-16,o),
(86,-16,cs)
);
}
);
width = 563;
}
);
metricLeft = "=one";
metricRight = "=one";
unicode = 50;
},
{
glyphname = three;
kernLeft = KO_three;
kernRight = KO_three;
lastChange = "2023-06-20 22:45:48 +0000";
layers = (
{
layerId = m01;
shapes = (
{
closed = 1;
nodes = (
(481,-26,o),
(573,85,o),
(573,199,cs),
(573,288,o),
(516,357,o),
(407,381,c),
(494,407,o),
(537,466,o),
(537,539,cs),
(537,639,o),
(455,726,o),
(281,726,cs),
(123,726,o),
(55,655,o),
(55,603,cs),
(55,544,o),
(140,521,o),
(194,555,cs),
(242,585,o),
(223,635,o),
(296,635,cs),
(358,635,o),
(369,599,o),
(369,535,cs),
(369,437,o),
(343,416,o),
(275,416,cs),
(220,416,o),
(189,430,o),
(168,428,cs),
(119,424,o),
(108,327,o),
(166,323,cs),
(189,321,o),
(218,335,o),
(277,335,cs),
(361,335,o),
(391,306,o),
(391,200,cs),
(391,115,o),
(372,73,o),
(302,73,cs),
(210,73,o),
(248,144,o),
(187,174,cs),
(124,205,o),
(9,167,o),
(27,91,cs),
(41,32,o),
(132,-26,o),
(278,-26,cs)
);
}
);
width = 588;
}
);
metricLeft = "=one";
metricRight = "=zero";
unicode = 51;
},
{
glyphname = four;
kernLeft = KO_four;
kernRight = KO_four;
lastChange = "2023-06-20 22:56:05 +0000";
layers = (
{
layerId = m01;
shapes = (
{
closed = 1;
nodes = (
(459,-16,o),
(511,6,o),
(511,68,cs),
(511,105,o),
(492,187,o),
(499,206,cs),
(504,220,o),
(527,194,o),
(558,194,cs),
(596,194,o),
(613,217,o),
(613,253,cs),
(613,288,o),
(596,311,o),
(560,311,cs),
(537,311,o),
(519,312,o),
(499,312,cs),
(481,312,o),
(485,553,o),
(485,626,cs),
(485,699,o),
(419,716,o),
(386,716,cs),
(356,716,o),
(318,701,o),
(292,672,cs),
(260,636,o),
(118,419,o),
(52,334,cs),
(-60,190,o),
(205,199,o),
(348,199,cs),
(398,199,o),
(322,110,o),
(322,54,cs),
(322,11,o),
(366,-16,o),
(415,-16,cs)
);
},
{
closed = 1;
nodes = (
(173,323,o),
(347,573,o),
(369,573,cs),
(391,573,o),
(383,318,o),
(353,312,cs),
(298,301,o),
(264,301,o),
(219,312,cs)
);
}
);
width = 638;
}
);
metricLeft = "=one";
metricRight = "=one";
unicode = 52;
userData = {
KernOnName = four;
};
},
{
glyphname = five;
kernLeft = KO_five;
kernRight = KO_five;
lastChange = "2023-06-20 22:53:37 +0000";
layers = (
{
layerId = m01;
shapes = (
{
closed = 1;
nodes = (
(453,-27,o),
(558,109,o),
(558,228,cs),
(558,336,o),
(473,465,o),
(289,465,cs),
(189,465,o),
(191,428,o),
(185,451,cs),
(161,547,o),
(189,593,o),
(246,593,cs),
(304,593,o),
(356,545,o),
(437,545,cs),
(584,545,o),
(587,706,o),
(458,706,cs),
(383,706,o),
(343,691,o),
(210,714,cs),
(129,728,o),
(72,681,o),
(72,630,cs),
(72,434,o),
(0,302,o),
(109,302,cs),
(168,302,o),
(133,341,o),
(267,341,cs),
(370,341,o),
(405,318,o),
(405,224,cs),
(405,130,o),
(370,107,o),
(270,107,cs),
(109,107,o),
(168,167,o),
(92,167,cs),
(-45,167,o),
(38,-27,o),
(264,-27,cs)
);
}
);
width = 583;
}
);
metricLeft = "=one";
metricRight = "=one";
unicode = 53;
},
{
glyphname = six;
kernLeft = KO_six;
kernRight = KO_six;
lastChange = "2023-06-20 22:53:37 +0000";
layers = (
{
layerId = m01;
shapes = (
{
closed = 1;
nodes = (
(478,-26,o),
(567,84,o),
(567,207,cs),
(567,332,o),
(476,452,o),
(322,452,cs),
(230,452,o),
(190,409,o),
(185,409,cs),
(159,409,o),
(167,528,o),
(179,565,cs),
(210,660,o),
(408,647,o),
(408,562,cs),
(408,470,o),
(554,481,o),
(554,567,cs),
(554,641,o),
(448,726,o),
(308,726,cs),
(232,726,o),
(132,701,o),
(78,627,cs),
(3,525,o),
(7,323,o),
(28,210,cs),
(53,76,o),
(118,-26,o),
(295,-26,cs)
);
},
{
closed = 1;
nodes = (
(232,38,o),
(210,80,o),
(210,212,cs),
(210,344,o),
(232,388,o),
(297,388,cs),
(363,388,o),
(385,343,o),
(385,212,cs),
(385,81,o),
(363,38,o),
(297,38,cs)
);
}
);
width = 582;
}
);
metricLeft = "=zero";
metricRight = "=zero";
unicode = 54;
},
{
glyphname = seven;
kernLeft = KO_seven;
kernRight = KO_seven;
lastChange = "2023-06-20 22:53:37 +0000";
layers = (
{
layerId = m01;
shapes = (
{
closed = 1;
nodes = (
(361,123,o),
(333,243,o),
(388,355,cs),
(424,428,o),
(511,526,o),
(534,590,cs),
(564,675,o),
(488,723,o),
(408,714,cs),
(206,691,o),
(165,716,o),
(110,716,cs),
(-31,716,o),
(-28,555,o),
(111,555,cs),
(179,555,o),
(238,593,o),
(324,593,cs),
(406,593,o),
(315,438,o),
(262,356,cs),
(221,292,o),
(152,190,o),
(152,104,cs),
(152,-28,o),
(317,-63,o),
(345,55,cs)
);
}
);
width = 566;
}
);
metricLeft = "=one-20";
metricRight = "=one";
unicode = 55;
},
{
glyphname = eight;
kernLeft = KO_eight;
kernRight = KO_three;
lastChange = "2023-06-20 22:50:05 +0000";
layers = (
{
layerId = m01;
shapes = (
{
closed = 1;
nodes = (
(504,-26,o),
(594,85,o),
(594,197,cs),
(594,288,o),
(539,356,o),
(419,381,c),
(514,406,o),
(558,466,o),
(558,538,cs),
(558,639,o),
(480,726,o),
(304,726,cs),
(128,726,o),
(51,639,o),
(51,538,cs),
(51,466,o),
(94,406,o),
(189,381,c),
(70,356,o),
(15,288,o),
(15,197,cs),
(15,85,o),
(104,-26,o),
(304,-26,cs)
);
},
{
closed = 1;
nodes = (
(224,66,o),
(197,99,o),
(197,197,cs),
(197,316,o),
(224,355,o),
(305,355,cs),
(385,355,o),
(412,316,o),
(412,197,cs),
(412,99,o),
(385,66,o),
(305,66,cs)
);
},
{
closed = 1;
nodes = (
(241,396,o),
(219,432,o),
(219,538,cs),
(219,616,o),
(241,642,o),
(305,642,cs),
(369,642,o),
(390,616,o),
(390,538,cs),
(390,432,o),
(369,396,o),
(305,396,cs)
);
}
);
width = 609;
}
);
metricLeft = "=zero";
metricRight = "=zero";
unicode = 56;
},
{
glyphname = nine;
kernLeft = KO_nine;
kernRight = KO_nine;
lastChange = "2023-06-20 22:53:37 +0000";
layers = (
{
layerId = m01;
shapes = (
{
closed = 1;
nodes = (
(350,-26,o),
(450,-1,o),
(504,73,cs),
(579,175,o),
(575,377,o),
(554,490,cs),
(529,624,o),
(464,726,o),
(287,726,cs),
(104,726,o),
(15,616,o),
(15,493,cs),
(15,368,o),
(106,248,o),
(260,248,cs),
(352,248,o),
(392,291,o),
(397,291,cs),
(423,291,o),
(415,172,o),
(403,135,cs),
(372,40,o),
(174,53,o),
(174,138,cs),
(174,230,o),
(28,219,o),
(28,133,cs),
(28,59,o),
(134,-26,o),
(274,-26,cs)
);
},
{
closed = 1;
nodes = (
(219,312,o),
(197,358,o),
(197,489,cs),
(197,619,o),
(219,662,o),
(285,662,cs),
(350,662,o),
(372,620,o),
(372,489,cs),
(372,357,o),
(350,312,o),
(285,312,cs)
);
}
);
width = 582;
}
);
metricLeft = "=zero";
metricRight = "=zero";
unicode = 57;
},
{
glyphname = period;
kernLeft = KO_period;
kernRight = KO_period;
lastChange = "2023-06-20 22:56:05 +0000";
layers = (
{
layerId = m01;
shapes = (
{
closed = 1;
nodes = (
(200,-7,o),
(234,27,o),
(234,90,cs),
(234,150,o),
(202,187,o),
(127,187,cs),
(53,187,o),
(19,153,o),
(19,90,cs),
(19,30,o),
(51,-7,o),
(127,-7,cs)
);
}
);
width = 262;
}
);
metricLeft = "=n";
metricRight = "=n";
unicode = 46;
userData = {
KernOnName = period;
KernOnSpecialSpacing = {
L = period;
R = period;
};
};
},
{
glyphname = comma;
kernLeft = KO_period;
lastChange = "2023-06-20 22:56:05 +0000";
layers = (
{
layerId = m01;
shapes = (
{
closed = 1;
nodes = (
(234,-162,o),
(234,-78,o),
(234,90,cs),
(234,150,o),
(202,187,o),
(127,187,cs),
(53,187,o),
(19,153,o),
(19,90,cs),
(19,30,o),
(51,-7,o),
(127,-7,cs),
(135,-7,ls),
(161,-7,o),
(160,-73,o),
(78,-73,cs),
(42,-73,o),
(44,-162,o),
(122,-162,cs)
);
}
);
width = 262;
}
);
metricLeft = "=n";
metricRight = "=n";
unicode = 44;
userData = {
KernOnName = comma;
KernOnSpecialSpacing = {
L = period;
R = period;
};
};
},
{
glyphname = colon;
kernLeft = KO_colon;
kernRight = KO_colon;
lastChange = "2023-06-20 22:56:05 +0000";
layers = (
{
layerId = m01;
shapes = (
{
closed = 1;
nodes = (
(200,313,o),
(234,347,o),
(234,410,cs),
(234,470,o),
(202,507,o),
(127,507,cs),
(53,507,o),
(19,473,o),
(19,410,cs),
(19,350,o),
(51,313,o),
(127,313,cs)
);
},
{
closed = 1;
nodes = (
(200,-7,o),
(234,27,o),
(234,90,cs),
(234,150,o),
(202,187,o),
(127,187,cs),
(53,187,o),
(19,153,o),
(19,90,cs),
(19,30,o),
(51,-7,o),
(127,-7,cs)
);
}
);
width = 262;
}
);
metricLeft = "=n";
metricRight = "=n";
unicode = 58;
userData = {
KernOnName = colon;
KernOnSpecialSpacing = {
L = "spaced-off";
R = "spaced-off";
};
};
},
{
glyphname = semicolon;
kernLeft = KO_colon;
kernRight = KO_colon;
lastChange = "2023-06-20 22:53:37 +0000";
layers = (
{
layerId = m01;
shapes = (
{
closed = 1;
nodes = (
(234,-162,o),
(234,-78,o),
(234,90,cs),
(234,150,o),
(202,187,o),
(127,187,cs),
(53,187,o),
(19,153,o),
(19,90,cs),
(19,30,o),
(51,-7,o),
(127,-7,cs),
(135,-7,ls),
(161,-7,o),
(160,-73,o),
(78,-73,cs),
(42,-73,o),
(44,-162,o),
(122,-162,cs)
);
},
{
closed = 1;
nodes = (
(200,313,o),
(234,347,o),
(234,410,cs),
(234,470,o),
(202,507,o),
(127,507,cs),
(53,507,o),
(19,473,o),
(19,410,cs),
(19,350,o),
(51,313,o),
(127,313,cs)
);
}
);
width = 262;
}
);
metricLeft = "=n";
metricRight = "=n";
unicode = 59;
userData = {
KernOnSpecialSpacing = {
L = "spaced-off";
R = "spaced-off";
};
};
},
{
glyphname = exclam;
kernLeft = KO_exclam;
kernRight = KO_exclam;
lastChange = "2023-06-20 22:56:05 +0000";
layers = (
{
layerId = m01;
shapes = (
{
closed = 1;
nodes = (
(252,214,o),
(190,309,o),
(190,411,cs),
(190,546,o),
(205,547,o),
(205,642,cs),
(205,748,o),
(44,747,o),
(44,642,cs),
(44,547,o),
(59,546,o),
(59,411,cs),
(59,309,o),
(-2,214,o),
(127,214,cs)
);
},
{
closed = 1;
nodes = (
(200,-7,o),
(234,27,o),
(234,90,cs),
(234,150,o),
(202,187,o),
(127,187,cs),
(53,187,o),
(19,153,o),
(19,90,cs),
(19,30,o),
(51,-7,o),
(127,-7,cs)
);
}
);
width = 262;
}
);
metricLeft = "=n";
metricRight = "=n";
unicode = 33;
userData = {
KernOnName = exclam;
KernOnSpecialSpacing = {
L = "spaced-off";
};
};
},
{
glyphname = question;
kernLeft = KO_question;
kernRight = KO_question;
lastChange = "2023-06-20 22:56:05 +0000";
layers = (
{
layerId = m01;
shapes = (
{
closed = 1;
nodes = (
(186,190,o),
(343,192,o),
(343,278,cs),
(343,368,o),
(485,443,o),
(485,556,cs),
(485,577,o),
(480,606,o),
(470,629,cs),
(433,715,o),
(331,726,o),
(272,726,cs),
(212,726,o),
(141,715,o),
(95,690,cs),
(43,662,o),
(19,614,o),
(19,570,cs),
(19,465,o),
(152,471,o),
(164,554,cs),
(175,631,o),
(348,640,o),
(348,555,cs),
(348,472,o),
(186,373,o),
(186,281,cs)
);
},
{
closed = 1;
nodes = (
(338,-7,o),
(372,27,o),
(372,90,cs),
(372,150,o),
(340,187,o),
(264,187,cs),
(191,187,o),
(157,153,o),
(157,90,cs),
(157,30,o),
(189,-7,o),
(265,-7,cs)
);
}
);
width = 513;
}
);
metricLeft = "=n";
metricRight = "=n";
unicode = 63;
userData = {
KernOnName = question;
KernOnSpecialSpacing = {
L = "spaced-off";
};
};
},
{
glyphname = hyphen;
kernLeft = KO_hyphen;
kernRight = KO_hyphen;
lastChange = "2023-06-20 22:56:05 +0000";
layers = (
{
layerId = m01;
shapes = (
{
closed = 1;
nodes = (
(333,226,o),
(426,172,o),
(426,286,cs),
(426,401,o),
(333,360,o),
(223,355,c),
(112,359,o),
(19,399,o),
(19,285,cs),
(19,170,o),
(112,226,o),
(222,226,cs)
);
}
);
width = 454;
}
);
metricLeft = "=n";
metricRight = "=n";
unicode = 45;
userData = {
KernOnName = hyphen;
KernOnSpecialSpacing = {
L = hyphen;
R = hyphen;
};
};
},
{
glyphname = quotedblleft;
kernLeft = KO_quoteleft;
kernRight = KO_quotedblleft;
lastChange = "2023-06-20 22:56:05 +0000";
layers = (
{
layerId = m01;
shapes = (
{
closed = 1;
nodes = (
(430,367,o),
(464,401,o),
(464,464,cs),
(464,524,o),
(432,561,o),
(356,561,cs),
(348,561,ls),
(322,561,o),
(323,627,o),
(405,627,cs),
(441,627,o),
(439,716,o),
(361,716,cs),
(249,716,o),
(249,632,o),
(249,464,cs),
(249,404,o),
(281,367,o),
(356,367,cs)
);
},
{
closed = 1;
nodes = (
(200,367,o),
(234,401,o),
(234,464,cs),
(234,524,o),
(202,561,o),
(126,561,cs),
(118,561,ls),
(92,561,o),
(93,627,o),
(175,627,cs),
(211,627,o),
(209,716,o),
(131,716,cs),
(19,716,o),
(19,632,o),
(19,464,cs),
(19,404,o),
(51,367,o),
(126,367,cs)
);
}
);
width = 492;
}
);
metricLeft = "=n";
metricRight = "=n";
unicode = 8220;
userData = {
KernOnName = quotedblleft;
KernOnSpecialSpacing = {
L = quotes;
R = quotes;
};
};
},
{
glyphname = quotedblright;
kernLeft = KO_quotesingle;
kernRight = KO_quotedbl;
lastChange = "2023-06-20 22:53:37 +0000";
layers = (
{
layerId = m01;
shapes = (
{
closed = 1;
nodes = (
(464,367,o),
(464,451,o),
(464,619,cs),
(464,679,o),
(432,716,o),
(357,716,cs),
(283,716,o),
(249,682,o),
(249,619,cs),
(249,559,o),
(281,522,o),
(357,522,cs),
(365,522,ls),
(391,522,o),
(390,456,o),
(308,456,cs),
(272,456,o),
(274,367,o),
(352,367,cs)
);
},
{
closed = 1;
nodes = (
(234,367,o),
(234,451,o),
(234,619,cs),
(234,679,o),
(202,716,o),
(127,716,cs),
(53,716,o),
(19,682,o),
(19,619,cs),
(19,559,o),
(51,522,o),
(127,522,cs),
(135,522,ls),
(161,522,o),
(160,456,o),
(78,456,cs),
(42,456,o),
(44,367,o),
(122,367,cs)
);
}
);
width = 492;
}
);
metricLeft = "=n";
metricRight = "=n";
unicode = 8221;
userData = {
KernOnSpecialSpacing = {
L = quotes;
R = quotes;
};
};
},
{
glyphname = quoteleft;
kernLeft = KO_quoteleft;
kernRight = KO_quotedblleft;
lastChange = "2023-06-20 22:56:05 +0000";
layers = (
{
layerId = m01;
shapes = (
{
closed = 1;
nodes = (
(200,367,o),
(234,401,o),
(234,464,cs),
(234,524,o),
(202,561,o),
(126,561,cs),
(118,561,ls),
(92,561,o),
(93,627,o),
(175,627,cs),
(211,627,o),
(209,716,o),
(131,716,cs),
(19,716,o),
(19,632,o),
(19,464,cs),
(19,404,o),
(51,367,o),
(126,367,cs)
);
}
);
width = 262;
}
);
metricLeft = "=n";
metricRight = "=n";
unicode = 8216;
userData = {
KernOnName = quoteleft;
KernOnSpecialSpacing = {
L = quotes;
R = quotes;
};
};
},
{
glyphname = quoteright;
kernLeft = KO_quotesingle;
kernRight = KO_quotedbl;
lastChange = "2023-06-20 22:56:05 +0000";
layers = (
{
layerId = m01;
shapes = (
{
closed = 1;
nodes = (
(234,367,o),
(234,451,o),
(234,619,cs),
(234,679,o),
(202,716,o),
(127,716,cs),
(53,716,o),
(19,682,o),
(19,619,cs),
(19,559,o),
(51,522,o),
(127,522,cs),
(135,522,ls),
(161,522,o),
(160,456,o),
(78,456,cs),
(42,456,o),
(44,367,o),
(122,367,cs)
);
}
);
width = 262;
}
);
metricLeft = "=n";
metricRight = "=n";
unicode = 8217;
userData = {
KernOnName = quoteright;
KernOnSpecialSpacing = {
L = quotes;
R = quotes;
};
};
},
{
glyphname = quotedbl;
kernLeft = KO_quotesingle;
kernRight = KO_quotedbl;
lastChange = "2023-06-20 22:53:37 +0000";
layers = (
{
layerId = m01;
shapes = (
{
closed = 1;
nodes = (
(464,367,o),
(464,451,o),
(464,619,cs),
(464,679,o),
(432,716,o),
(357,716,cs),
(283,716,o),
(249,682,o),
(249,619,cs),
(249,559,o),
(281,522,o),
(357,522,cs),
(365,522,ls),
(391,522,o),
(390,456,o),
(308,456,cs),
(272,456,o),
(274,367,o),
(352,367,cs)
);
},
{
closed = 1;
nodes = (
(234,367,o),
(234,451,o),
(234,619,cs),
(234,679,o),
(202,716,o),
(127,716,cs),
(53,716,o),
(19,682,o),
(19,619,cs),
(19,559,o),
(51,522,o),
(127,522,cs),
(135,522,ls),
(161,522,o),
(160,456,o),
(78,456,cs),
(42,456,o),
(44,367,o),
(122,367,cs)
);
}
);
width = 492;
}
);
metricLeft = "=n";
metricRight = "=n";
unicode = 34;
userData = {
KernOnSpecialSpacing = {
L = quotes;
R = quotes;
};
};
},
{
glyphname = quotesingle;
kernLeft = KO_quotesingle;
kernRight = KO_quotedbl;
lastChange = "2023-06-20 22:56:05 +0000";
layers = (
{
layerId = m01;
shapes = (
{
closed = 1;
nodes = (
(234,367,o),
(234,451,o),
(234,619,cs),
(234,679,o),
(202,716,o),
(127,716,cs),
(53,716,o),
(19,682,o),
(19,619,cs),
(19,559,o),
(51,522,o),
(127,522,cs),
(135,522,ls),
(161,522,o),
(160,456,o),
(78,456,cs),
(42,456,o),
(44,367,o),
(122,367,cs)
);
}
